<?xml version="1.0" standalone="no"?>
<!DOCTYPE svg PUBLIC "-//W3C//DTD SVG 20010904//EN"
 "http://www.w3.org/TR/2001/REC-SVG-20010904/DTD/svg10.dtd">
<svg version="1.0" xmlns="http://www.w3.org/2000/svg"
 width="1000.000000pt" height="1000.000000pt" viewBox="0 0 1000.000000 1000.000000"
 preserveAspectRatio="xMidYMid meet">

<g transform="translate(0.000000,1000.000000) scale(0.100000,-0.100000)"
fill="#000000" stroke="none">
<path d="M4670 7036 c0 -6 88 -195 143 -306 47 -95 63 -117 177 -235 69 -71
134 -141 145 -154 38 -45 -142 99 -236 188 -71 69 -113 100 -174 130 -134 65
-203 83 -352 88 -73 3 -133 3 -133 0 0 -3 17 -16 38 -28 20 -13 72 -50 116
-82 161 -122 209 -143 441 -188 134 -26 159 -35 238 -95 79 -60 229 -186 225
-189 -11 -10 -127 27 -194 62 -187 98 -313 97 -539 -4 -101 -45 -126 -63 -87
-63 10 0 42 -7 72 -15 30 -8 100 -25 155 -36 120 -25 178 -21 325 21 58 17
125 30 150 30 79 0 155 -26 212 -72 73 -60 184 -132 254 -167 80 -39 104 -46
104 -29 0 7 -41 33 -90 57 -102 48 -152 93 -186 166 -32 67 -31 127 1 169 40
53 59 146 46 230 -14 93 -26 131 -59 191 -36 66 -61 70 -109 18 -121 -128
-115 -310 14 -438 41 -41 53 -60 62 -103 6 -29 20 -71 32 -94 l21 -41 -89 76
c-49 41 -132 120 -185 176 -104 109 -96 93 -143 296 -26 114 -79 211 -154 285
-67 66 -241 179 -241 156z m108 -82 c9 -2 26 -14 37 -28 12 -15 24 -26 28 -26
4 0 30 -22 58 -49 33 -32 48 -54 44 -62 -6 -8 -4 -10 5 -4 10 6 12 4 7 -9 -4
-10 -3 -15 3 -11 23 14 110 -229 89 -250 -7 -7 -8 -4 -3 9 5 13 4 17 -4 12
-12 -7 -27 28 -18 43 3 5 1 20 -4 33 -10 22 -10 22 -5 -4 3 -15 0 -30 -7 -34
-7 -4 -8 -3 -4 4 4 7 3 12 -2 12 -5 0 -15 14 -22 30 -7 17 -16 30 -20 30 -4 0
-6 17 -5 39 3 45 -18 94 -28 67 -5 -12 -3 -15 5 -10 8 5 9 2 5 -9 -4 -10 -2
-28 3 -42 11 -28 3 -58 -12 -49 -6 4 -2 -5 7 -20 9 -14 21 -23 26 -21 4 3 15
-8 24 -24 25 -49 -1 -47 -50 5 -42 44 -59 74 -33 58 7 -4 8 -3 4 5 -4 6 -11 9
-16 6 -5 -3 -16 5 -24 17 -19 26 -21 42 -4 32 7 -4 8 -3 4 5 -4 6 -11 9 -16 6
-11 -7 -41 51 -87 165 -19 47 -37 92 -40 100 -5 10 0 9 16 -4 12 -11 30 -21
39 -22z m-274 -240 c44 -9 101 -26 126 -37 25 -11 50 -21 55 -22 18 -4 134
-75 141 -87 5 -7 2 -8 -7 -3 -8 4 2 -7 21 -25 19 -18 28 -27 19 -21 -9 6 -19
8 -22 4 -4 -3 -7 -1 -7 5 0 7 -3 11 -7 11 -19 -3 -34 2 -29 9 2 4 -3 8 -12 9
-9 1 -28 4 -42 6 -14 3 -29 5 -33 6 -11 1 2 21 14 21 6 0 7 -5 3 -12 -4 -7 -3
-8 4 -4 6 4 21 2 33 -5 17 -8 20 -8 14 1 -5 9 -1 10 16 5 30 -9 25 -5 -26 24
-36 21 -38 21 -15 2 38 -31 17 -25 -64 19 -76 42 -92 47 -80 29 9 -15 -22 -5
-105 32 -35 16 -66 27 -68 25 -2 -2 39 -22 90 -45 90 -39 129 -52 97 -31 -17
11 -1 13 25 4 11 -5 13 -9 6 -14 -7 -4 -2 -11 14 -18 15 -7 24 -8 20 -2 -3 5
-2 10 4 10 15 0 23 -18 11 -25 -6 -4 -45 8 -88 26 -42 18 -124 52 -182 75
l-105 43 49 1 c27 0 85 -7 130 -16z m903 -246 c-2 -186 -3 -191 -45 -136 -7 9
-20 24 -28 33 -21 20 -44 98 -44 146 0 52 33 136 72 184 l33 39 7 -44 c4 -25
6 -125 5 -222z m60 162 c19 -49 20 -67 12 -170 -10 -143 -9 -140 -19 -110 -7
21 -8 19 -9 -17 -1 -24 -6 -43 -12 -43 -7 0 -8 7 -4 18 3 9 8 82 9 162 2 84 0
124 -4 95 l-7 -50 -1 41 c-1 23 -5 70 -8 105 -6 58 -5 62 8 44 9 -11 24 -45
35 -75z m-1022 30 c-3 -4 8 -12 23 -19 25 -11 26 -10 8 4 -11 8 -17 15 -13 15
5 0 101 -40 212 -90 22 -9 62 -25 89 -35 29 -11 44 -20 36 -25 -7 -4 13 -15
49 -25 33 -10 59 -21 56 -23 -2 -2 -61 8 -132 23 -98 20 -146 36 -203 67 -66
35 -210 134 -210 143 0 2 20 -3 44 -12 25 -9 43 -20 41 -23z m513 -45 c-3 -3
-9 2 -12 12 -6 14 -5 15 5 6 7 -7 10 -15 7 -18z m60 -100 c-3 -3 -9 2 -12 12
-6 14 -5 15 5 6 7 -7 10 -15 7 -18z m-168 -15 c8 -5 11 -10 5 -10 -5 0 -17 5
-25 10 -8 5 -10 10 -5 10 6 0 17 -5 25 -10z m640 -128 c-11 -16 -11 -16 -6 1
3 10 7 46 8 80 l2 62 3 -63 c2 -35 -1 -70 -7 -80z m-53 46 c-3 -7 -5 -2 -5 12
0 14 2 19 5 13 2 -7 2 -19 0 -25z m-440 -171 c84 -25 47 -32 -155 -31 -108 0
-168 -2 -132 -6 l65 -5 -90 -8 c-49 -4 -106 -10 -125 -12 l-35 -4 30 14 c17 8
44 15 60 15 24 1 26 3 11 9 -15 6 -4 12 45 26 122 34 213 35 326 2z m90 -43
c-3 -3 -12 -4 -19 -1 -8 3 -5 6 6 6 11 1 17 -2 13 -5z m-102 -14 c-3 -5 -16
-10 -28 -11 -16 -1 -13 -3 11 -10 19 -6 39 -8 45 -5 7 2 1 5 -13 6 -23 1 -23
2 -5 10 11 5 34 8 50 8 30 0 30 0 5 -9 -20 -7 -17 -8 15 -4 59 6 24 -9 -80
-35 -75 -19 -106 -22 -185 -17 -52 4 -126 15 -165 26 l-70 19 56 1 c30 1 59 5
65 10 17 18 310 28 299 11z"/>
<path d="M4770 6945 c0 -3 16 -29 35 -58 35 -52 44 -74 25 -62 -6 3 -1 -10 11
-29 12 -20 26 -39 33 -43 6 -4 3 5 -6 19 -10 15 -15 33 -13 40 3 7 -13 41 -35
76 -37 57 -50 71 -50 57z"/>
<path d="M4860 6852 c6 -13 9 -30 6 -38 -3 -8 3 -29 14 -46 10 -17 17 -35 14
-39 -2 -4 0 -10 6 -14 5 -3 10 -11 10 -17 0 -6 -7 -5 -17 3 -16 13 -16 13 0
-10 20 -29 52 -39 42 -13 -4 9 -21 53 -37 97 -16 44 -34 85 -40 90 -6 6 -5 0
2 -13z"/>
<path d="M4895 6830 c9 -16 18 -30 21 -30 2 0 -2 14 -11 30 -9 17 -18 30 -21
30 -2 0 2 -13 11 -30z"/>
<path d="M4982 6699 c6 -16 12 -28 14 -26 5 5 -13 57 -20 57 -3 0 0 -14 6 -31z"/>
<path d="M4970 6675 c0 -5 5 -17 10 -25 5 -8 10 -10 10 -5 0 6 -5 17 -10 25
-5 8 -10 11 -10 5z"/>
<path d="M4970 6570 c6 -11 13 -20 16 -20 2 0 0 9 -6 20 -6 11 -13 20 -16 20
-2 0 0 -9 6 -20z"/>
<path d="M4680 6646 c0 -3 9 -10 20 -16 11 -6 20 -8 20 -6 0 3 -9 10 -20 16
-11 6 -20 8 -20 6z"/>
<path d="M5372 6410 c0 -14 2 -19 5 -12 2 6 2 18 0 25 -3 6 -5 1 -5 -13z"/>
<path d="M5332 6400 c0 -14 2 -19 5 -12 2 6 2 18 0 25 -3 6 -5 1 -5 -13z"/>
<path d="M5392 6375 c0 -16 2 -22 5 -12 2 9 2 23 0 30 -3 6 -5 -1 -5 -18z"/>
<path d="M5462 6500 c0 -14 2 -19 5 -12 2 6 2 18 0 25 -3 6 -5 1 -5 -13z"/>
<path d="M5463 6435 c0 -22 2 -30 4 -17 2 12 2 30 0 40 -3 9 -5 -1 -4 -23z"/>
<path d="M4665 6550 c3 -5 11 -10 16 -10 6 0 7 5 4 10 -3 6 -11 10 -16 10 -6
0 -7 -4 -4 -10z"/>
<path d="M4728 6233 c12 -2 32 -2 45 0 12 2 2 4 -23 4 -25 0 -35 -2 -22 -4z"/>
<path d="M4950 6229 c0 -5 5 -7 10 -4 6 3 10 8 10 11 0 2 -4 4 -10 4 -5 0 -10
-5 -10 -11z"/>
<path d="M4988 6228 c6 -6 18 -8 28 -6 14 3 12 5 -9 10 -19 3 -25 2 -19 -4z"/>
<path d="M4908 6223 c6 -2 18 -2 25 0 6 3 1 5 -13 5 -14 0 -19 -2 -12 -5z"/>
<path d="M4785 6179 l-70 -5 60 -2 c33 -1 69 -5 80 -8 11 -3 28 1 39 9 17 13
17 14 -10 13 -16 -1 -60 -4 -99 -7z"/>
<path d="M3663 5763 c-21 -8 -15 -40 12 -57 37 -24 33 -60 -31 -263 -31 -98
-67 -214 -80 -258 -36 -120 -43 -132 -93 -175 -65 -55 -51 -64 91 -62 86 2
116 6 128 18 13 14 12 17 -12 35 -20 15 -28 29 -28 52 0 34 66 255 82 275 12
14 314 17 337 3 12 -8 9 -26 -18 -113 -42 -131 -62 -169 -107 -206 -25 -21
-35 -36 -31 -47 6 -13 24 -15 129 -13 109 3 123 5 126 21 2 10 -7 26 -22 38
-14 11 -26 30 -26 41 0 26 39 160 50 172 14 15 53 -1 137 -56 44 -29 88 -58
98 -64 25 -14 13 -59 -27 -96 -18 -17 -28 -34 -24 -43 5 -15 13 -17 86 -17 90
0 101 2 107 18 3 9 1 25 -5 35 -26 41 -17 48 56 42 54 -4 79 -1 127 17 105 39
98 41 140 -42 127 -250 248 -338 465 -338 89 0 159 17 230 56 54 30 104 79 94
95 -8 14 -40 11 -55 -7 -19 -23 -97 -60 -158 -74 -102 -24 -219 11 -307 92
-47 44 -113 139 -170 246 l-39 74 40 35 c151 132 340 284 342 276 3 -9 -99
-347 -126 -415 -5 -15 -28 -37 -50 -50 -51 -29 -54 -55 -7 -64 19 -3 116 -4
215 -2 210 4 215 6 269 106 49 92 25 109 -62 43 -28 -21 -68 -44 -88 -50 -41
-13 -143 -20 -153 -9 -7 7 156 552 182 605 8 18 30 46 49 63 62 54 50 61 -88
58 -75 -2 -123 -7 -125 -14 -2 -6 8 -23 22 -38 29 -31 29 -35 13 -87 -8 -30
-26 -50 -77 -88 -36 -27 -100 -80 -141 -116 -122 -109 -217 -185 -232 -185 -8
0 -28 31 -46 69 -46 101 -48 115 -20 133 13 9 79 64 148 122 84 73 149 118
198 142 54 26 72 39 70 52 -3 15 -19 17 -118 20 -88 2 -120 -1 -135 -12 -19
-14 -19 -15 -2 -34 17 -19 17 -23 3 -50 -17 -32 -144 -155 -227 -219 -58 -44
-137 -88 -144 -81 -3 3 2 24 9 49 8 24 29 90 46 146 25 82 37 108 65 135 19
18 35 38 35 45 0 20 -44 26 -132 17 -91 -10 -85 -2 -71 -86 4 -29 -10 -86 -63
-259 -37 -121 -73 -223 -80 -226 -7 -2 -43 13 -81 34 -37 22 -89 47 -115 57
-31 11 -48 24 -48 34 0 9 23 87 51 172 47 142 55 158 95 196 47 44 55 70 27
77 -10 2 -66 5 -124 6 -86 1 -109 -1 -119 -14 -11 -13 -8 -21 18 -48 18 -18
32 -42 31 -52 0 -11 -15 -65 -32 -120 l-33 -100 -169 -3 c-92 -1 -172 1 -175
5 -10 11 57 213 78 236 9 11 29 25 44 33 31 16 37 50 11 58 -24 6 -224 6 -240
-1z m1060 -451 c21 -23 78 -152 72 -162 -24 -38 -219 -58 -232 -24 -7 18 21
117 44 152 13 22 64 51 89 52 6 0 18 -8 27 -18z"/>
<path d="M6603 5758 c-38 -8 -51 -20 -131 -121 -50 -62 -132 -164 -183 -227
l-94 -114 -13 64 c-18 90 -67 231 -110 320 l-37 75 -103 3 c-86 2 -103 0 -109
-13 -4 -11 6 -26 27 -44 24 -20 33 -35 32 -57 -1 -30 -114 -414 -153 -520 -14
-39 -37 -73 -66 -102 -25 -24 -42 -49 -39 -57 5 -13 128 -24 188 -16 41 5 44
31 8 59 -27 21 -31 29 -26 56 10 54 163 527 174 538 15 15 70 -138 89 -251 15
-86 15 -110 4 -175 -14 -83 -11 -96 23 -96 25 0 51 26 116 115 71 97 275 347
309 379 17 17 31 24 31 17 0 -24 -159 -534 -174 -556 -8 -12 -28 -28 -45 -35
-19 -8 -31 -20 -31 -31 0 -18 8 -19 138 -17 129 3 137 4 140 23 2 15 -6 23
-28 32 -52 20 -54 10 127 597 13 45 40 78 97 124 45 36 -54 54 -161 30z"/>
<path d="M3342 4814 c-77 -19 -176 -83 -216 -141 -67 -97 -36 -243 53 -243 30
0 32 13 10 56 -28 54 -21 133 18 188 35 49 116 93 190 102 l53 7 -49 -104
c-27 -57 -74 -170 -104 -251 -68 -177 -87 -216 -127 -257 -47 -46 -120 -40
-120 10 0 42 -63 49 -73 7 -10 -36 19 -76 59 -84 58 -11 121 1 166 32 75 52
158 207 241 451 56 161 71 183 128 183 30 0 43 -6 64 -32 25 -30 27 -37 23
-106 -3 -73 -4 -76 -45 -112 -45 -39 -99 -60 -157 -60 -43 0 -50 -25 -11 -40
39 -15 47 -49 34 -150 -11 -82 -10 -92 8 -122 43 -74 141 -73 227 3 46 41 46
41 55 17 31 -81 142 -88 242 -16 51 37 126 118 178 194 l35 49 13 -55 c24
-100 0 -190 -52 -190 -24 0 -33 7 -58 43 -18 26 -47 12 -47 -23 0 -67 104 -94
171 -45 43 32 79 91 79 130 0 17 -9 54 -20 83 -26 67 -25 93 2 127 20 26 21
28 4 41 -28 20 -60 -1 -102 -65 -129 -195 -232 -291 -312 -291 -35 0 -62 27
-62 62 0 23 7 29 53 43 63 21 140 68 167 103 11 13 20 39 20 57 0 75 -100 102
-176 46 -65 -47 -134 -142 -134 -186 0 -25 -78 -103 -115 -115 -68 -23 -95 16
-95 136 0 49 -6 86 -16 105 -8 17 -14 32 -12 33 2 0 28 10 58 20 106 35 159
101 160 196 0 68 -27 110 -95 145 -50 26 -69 30 -154 32 -61 1 -119 -3 -159
-13z m667 -368 c27 -32 -37 -116 -116 -154 -18 -9 -36 -12 -40 -9 -11 11 32
92 73 137 38 42 63 50 83 26z"/>
<path d="M4564 4656 c-11 -8 -33 -46 -48 -85 l-27 -70 -42 -3 c-52 -4 -60 -31
-9 -36 17 -2 32 -5 32 -8 0 -3 -11 -30 -24 -62 -42 -99 -69 -200 -61 -230 21
-86 101 -84 195 4 l50 47 0 -32 c0 -40 39 -81 75 -81 35 0 62 15 108 58 35 34
37 35 37 13 0 -35 17 -59 49 -66 36 -8 72 10 124 59 l37 37 0 -31 c0 -35 30
-70 60 -70 32 0 74 25 109 65 l31 36 0 -31 c0 -35 30 -70 61 -70 69 0 181 110
248 243 43 87 44 88 75 81 17 -3 33 -8 35 -10 2 -2 -14 -43 -37 -91 -46 -99
-56 -138 -46 -177 15 -62 87 -58 162 9 l50 45 5 -29 c11 -52 59 -80 113 -67
14 4 45 27 70 51 l44 44 0 -34 c0 -83 74 -87 161 -8 l42 38 -7 -36 c-4 -25 -2
-40 7 -47 21 -18 45 6 72 71 13 32 38 83 57 113 37 62 119 144 143 144 22 0
19 -45 -10 -114 -40 -99 -50 -149 -36 -184 26 -61 106 -49 180 28 l41 42 0
-36 c0 -44 29 -76 68 -76 57 0 170 96 210 177 20 41 7 56 -19 23 -60 -77 -104
-122 -131 -136 -27 -14 -32 -14 -46 0 -14 13 -13 22 3 82 10 37 30 100 45 138
l27 71 54 3 c82 5 94 42 13 42 -24 0 -44 1 -44 3 0 2 11 37 25 77 19 57 22 76
13 82 -18 11 -21 10 -43 -5 -10 -8 -30 -45 -45 -83 -27 -67 -29 -69 -66 -72
-60 -5 -71 -42 -13 -42 16 0 29 -4 29 -9 0 -28 -73 -176 -106 -216 -43 -51
-98 -90 -114 -80 -19 12 -10 65 26 152 42 100 47 149 19 169 -46 34 -114 7
-185 -74 l-41 -46 21 48 c24 58 25 72 4 80 -32 12 -58 -19 -83 -98 -24 -80
-66 -143 -135 -203 -40 -36 -44 -37 -66 -23 -13 8 -11 20 13 92 16 46 42 109
58 142 17 32 28 65 25 72 -6 17 -48 18 -63 3 -8 -8 -17 -7 -34 5 -78 54 -202
-20 -274 -163 -35 -69 -126 -164 -151 -159 -28 6 -22 43 26 154 23 53 40 104
38 113 -2 9 -21 22 -43 29 -55 18 -68 31 -61 64 7 36 -22 55 -54 36 -23 -15
-23 -15 -24 -88 -2 -76 -53 -177 -128 -252 -57 -57 -93 -72 -104 -44 -5 13 27
112 83 258 20 54 11 75 -30 64 -20 -5 -31 -21 -53 -78 -51 -137 -96 -207 -154
-241 -27 -16 -31 -17 -36 -3 -10 25 5 84 43 176 19 47 37 100 40 118 5 33 5
33 -28 30 -33 -3 -35 -7 -64 -83 -17 -44 -36 -90 -43 -102 -20 -36 -93 -117
-123 -136 -59 -39 -64 5 -14 134 19 50 42 103 51 119 10 15 14 35 11 44 -7 18
-48 21 -64 5 -8 -8 -17 -7 -34 5 -75 52 -192 -18 -269 -163 -36 -68 -130 -161
-161 -161 -11 0 -22 7 -26 16 -8 22 12 102 50 204 l32 85 55 5 c42 4 56 9 58
23 3 14 -4 17 -42 17 -25 0 -46 3 -46 8 0 4 10 34 22 68 29 80 18 112 -28 80z
m338 -213 c26 -23 23 -44 -16 -121 -42 -82 -77 -130 -113 -154 -34 -22 -38
-22 -57 -2 -22 22 -19 69 8 135 29 72 61 116 100 140 38 23 54 24 78 2z m1182
4 c27 -20 23 -56 -14 -128 -84 -167 -180 -220 -180 -100 0 96 97 236 166 240
5 1 18 -5 28 -12z"/>
<path d="M4138 3762 c-68 -9 -122 -107 -99 -182 26 -86 109 -122 196 -86 93
39 103 199 16 248 -30 18 -75 26 -113 20z m96 -55 c41 -55 21 -174 -33 -197
-53 -22 -111 35 -111 108 0 44 19 101 38 112 31 19 83 7 106 -23z"/>
<path d="M5392 3760 c-117 -27 -139 -206 -32 -262 101 -53 210 12 210 126 0
99 -78 159 -178 136z m92 -39 c44 -49 35 -166 -16 -204 -56 -42 -118 14 -118
106 0 49 20 101 42 110 30 12 76 6 92 -12z"/>
<path d="M3720 3751 c0 -5 9 -11 20 -14 18 -5 20 -14 20 -115 0 -103 -1 -110
-22 -120 -19 -9 -11 -11 45 -11 43 -1 66 3 62 9 -3 6 -13 10 -21 10 -10 0 -14
13 -14 50 0 49 0 50 31 50 22 0 32 -5 36 -20 9 -36 23 -21 23 25 0 47 -9 56
-30 30 -7 -8 -23 -15 -36 -15 -22 0 -24 4 -24 55 l0 55 35 0 c21 0 43 -8 55
-20 22 -22 32 -14 23 18 -5 21 -11 22 -104 22 -55 0 -99 -4 -99 -9z"/>
<path d="M4420 3751 c0 -5 9 -11 20 -14 18 -5 20 -14 20 -115 0 -103 -1 -110
-22 -120 -19 -9 -10 -11 47 -11 57 0 66 2 48 11 -19 9 -23 19 -23 60 0 26 4
48 10 48 5 0 25 -25 45 -55 39 -61 70 -81 111 -71 l27 7 -26 17 c-30 20 -102
112 -86 112 18 0 59 48 59 70 0 12 -11 32 -25 45 -22 23 -32 25 -115 25 -49 0
-90 -4 -90 -9z m152 -28 c35 -32 10 -93 -39 -93 -21 0 -23 4 -23 55 0 50 2 55
22 55 12 0 30 -7 40 -17z"/>
<path d="M4960 3751 c0 -5 9 -11 20 -14 18 -5 20 -14 20 -115 0 -103 -1 -110
-22 -120 -18 -8 1 -11 90 -11 l112 -1 0 35 c0 19 -2 35 -5 35 -2 0 -15 -11
-29 -25 -17 -17 -36 -25 -61 -25 l-35 0 0 115 c0 108 1 115 20 115 11 0 20 5
20 10 0 6 -28 10 -65 10 -36 0 -65 -4 -65 -9z"/>
<path d="M5650 3754 c0 -4 7 -12 15 -18 8 -6 37 -65 63 -131 28 -70 55 -121
64 -123 10 -2 30 34 67 123 30 70 60 129 67 132 29 11 12 23 -31 23 -47 0 -54
-5 -31 -24 12 -9 9 -23 -16 -91 -34 -88 -35 -91 -44 -83 -9 10 -64 149 -64
164 0 8 7 14 15 14 8 0 15 5 15 10 0 6 -27 10 -60 10 -33 0 -60 -3 -60 -6z"/>
<path d="M6030 3751 c0 -5 7 -11 15 -15 12 -4 15 -27 15 -114 0 -103 -1 -110
-22 -120 -18 -8 1 -11 88 -11 119 -1 124 1 124 52 0 20 -2 19 -29 -7 -23 -22
-36 -27 -67 -24 -39 3 -39 3 -42 51 -3 45 -2 47 24 47 15 0 36 -7 46 -17 17
-15 18 -14 18 33 -1 43 -2 47 -14 32 -8 -11 -26 -18 -45 -18 -32 0 -32 0 -29
48 3 44 5 47 32 50 18 2 40 -4 57 -17 l29 -22 0 31 0 30 -100 0 c-55 0 -100
-4 -100 -9z"/>
</g>
</svg>
